<svg width="500" height="600" xmlns="http://www.w3.org/2000/svg">
 <g>
  <title>Layer 1</title>
  <g stroke="null" id="svg_1">
   <g stroke="null" id="svg_2">
    <path stroke="null" d="m253.1391,212.28444c-0.75129,-4.35656 -3.01305,-8.28065 -6.39987,-10.01965c-11.29347,-6.53719 -35.76705,-16.12038 -35.76705,-16.12038l0,-9.58719l0.75129,-0.43703c4.89329,-3.91952 7.90634,-10.45669 9.03528,-17.43116l0,-0.86947l0.75129,0c3.76434,0 7.15504,-2.61308 8.28398,-6.53719c0.75129,-1.74359 1.12895,-3.48706 1.12895,-5.6631c0,-1.30655 -0.37763,-2.61308 -0.75129,-3.91952c-0.37763,-1.30655 -0.75129,-2.61308 -1.88421,-3.48706l-2.25788,-1.74359l0.37763,-3.05002c4.14199,-20.4814 -9.79056,-39.21393 -28.23876,-39.65086l-1.50657,0l-1.50657,0c-18.4483,0.43703 -32.38044,19.17416 -28.23876,39.65086l0.37763,3.05002l-1.5026,2.17603c-0.75129,0.86947 -1.50657,2.18063 -1.88421,3.48706c-0.37763,0.86947 -0.37763,2.17603 -0.37763,3.48246c0,2.18063 0.37763,3.91952 1.12895,5.6631c1.50657,3.91952 4.51962,6.53719 8.28398,6.53719l0.75129,0l0,0.86947c1.12895,6.96964 4.14199,13.07014 9.03528,17.43116l0.75129,0.43703l0,9.58719s-24.4746,9.58719 -35.76705,16.12038c-3.38672,2.18063 -5.64857,5.6631 -6.39987,10.01965c-1.88421,13.07014 -2.25788,34.85762 -2.25788,34.85762l58.36213,0.00461l58.35806,0c-0.37763,-0.43703 -0.75527,-22.2244 -2.63541,-34.85762l-0.00135,-0.00001l-0.00002,0l-0.00001,0.00001z" id="svg_3"/>
    <path stroke="null" d="m358.94031,426.22574l0,98.91281c0,1.30655 -0.75129,2.18063 -1.88421,2.18063l-319.65255,-0.00461c-1.12895,0 -1.88421,-0.86947 -1.88421,-2.18063l0.00398,-459.25657c0,-1.30655 0.75129,-2.18063 1.88421,-2.18063l319.65255,0c1.12895,0 1.88421,0.86947 1.88421,2.18063l-0.00398,142.47835l29.36729,-46.18828c0.75129,-0.86947 1.50657,-2.18063 2.25788,-3.05002l0,-93.24571c0,-21.35055 -15.06168,-38.78172 -33.50999,-38.78172l-319.65255,0c-18.4483,0 -33.50999,17.43116 -33.50999,38.78172l0,459.25657c0,21.35055 15.06168,38.78172 33.50999,38.78172l319.65255,0c18.4483,0 33.50999,-17.43116 33.50999,-38.78172l0,-147.2716l-27.48368,42.70111c-1.12895,2.17603 -2.63541,3.91952 -4.14199,5.6631l0.00051,0.00485l-0.00001,0.00001z" id="svg_4"/>
    <path stroke="null" d="m244.47921,425.35423l-83.20613,0c-3.76434,0 -7.15504,3.48706 -7.15504,8.28065c0,4.35656 3.01305,8.28065 7.15504,8.28065l83.20613,0c3.76434,0 7.15504,-3.48706 7.15504,-8.28065c0,-4.36115 -3.01305,-8.28065 -7.15504,-8.28065z" id="svg_5"/>
    <path stroke="null" d="m244.47921,368.70679l-162.26855,0c-3.76434,0 -7.15504,3.48706 -7.15504,8.28065c0,4.35656 3.01305,8.28065 7.15504,8.28065l162.26855,0c3.76434,0 7.15504,-3.48706 7.15504,-8.28065c-0.00398,-4.7982 -3.01702,-8.28065 -7.15911,-8.28065l0.00407,0z" id="svg_6"/>
    <path stroke="null" d="m244.47921,311.62358l-162.26855,0c-3.76434,0 -7.15504,3.48706 -7.15504,8.28065c0,4.79361 3.01305,8.28065 7.15504,8.28065l162.26855,0c3.76434,0 7.15504,-3.48706 7.15504,-8.28065c-0.00398,-4.79361 -3.01702,-8.28065 -7.15911,-8.28065l0.00407,0z" id="svg_7"/>
    <path stroke="null" d="m452.6828,170.45247c-7.15504,-6.10014 -15.43515,-8.28065 -24.09707,-6.96964c-8.65765,1.30655 -16.19022,6.96964 -21.46146,14.81313l-115.20396,181.26007c-0.75129,0.86947 -1.12895,2.18063 -1.50657,3.48706l-13.5546,69.71876c-0.75129,3.48706 0.37763,6.96964 3.01305,9.15015c1.12895,0.86947 2.25788,1.30655 3.76434,1.74359c1.50657,0 3.38672,0 4.89329,-1.30655l53.46436,-35.73147c0.75129,-0.43703 1.88421,-1.30655 2.25788,-2.61308l115.59065,-181.26007c10.54145,-16.56085 7.52871,-40.0925 -7.15504,-52.29231l-0.00489,0.00035l0.00001,-0.00001l0,0.00001zm-152.10259,243.13652l-3.38672,-3.91952l5.64857,-29.63097l20.70639,17.86338l-22.96824,15.6871l0,0.00001z" id="svg_8"/>
   </g>
  </g>
 </g>

</svg>